<mxfile host="app.diagrams.net" modified="2023-10-23T05:34:48.064Z" agent="Mozilla/5.0 (Windows NT 10.0; Win64; x64) AppleWebKit/537.36 (KHTML, like Gecko) Chrome/118.0.0.0 Safari/537.36" etag="EqGhSd1pcZym0jhiKPoZ" version="22.0.6" type="github">
  <diagram name="페이지-1" id="jjj7YyD9YqvPjzYAXJRd">
    <mxGraphModel dx="1728" dy="943" grid="1" gridSize="10" guides="1" tooltips="1" connect="1" arrows="1" fold="1" page="1" pageScale="1" pageWidth="827" pageHeight="1169" math="0" shadow="0">
      <root>
        <mxCell id="0" />
        <mxCell id="1" parent="0" />
        <mxCell id="NeOe5BnNapqzXYatWqwJ-2" value="인트로" style="rounded=1;whiteSpace=wrap;html=1;" vertex="1" parent="1">
          <mxGeometry x="354" y="190" width="120" height="60" as="geometry" />
        </mxCell>
        <mxCell id="NeOe5BnNapqzXYatWqwJ-4" value="" style="endArrow=classic;html=1;rounded=0;" edge="1" parent="1" source="NeOe5BnNapqzXYatWqwJ-2">
          <mxGeometry width="50" height="50" relative="1" as="geometry">
            <mxPoint x="400" y="390" as="sourcePoint" />
            <mxPoint x="414" y="290" as="targetPoint" />
          </mxGeometry>
        </mxCell>
        <mxCell id="NeOe5BnNapqzXYatWqwJ-5" value="로그인 화면" style="rounded=1;whiteSpace=wrap;html=1;" vertex="1" parent="1">
          <mxGeometry x="354" y="290" width="120" height="60" as="geometry" />
        </mxCell>
        <mxCell id="NeOe5BnNapqzXYatWqwJ-10" value="" style="strokeWidth=2;html=1;shape=mxgraph.flowchart.annotation_2;align=left;labelPosition=right;pointerEvents=1;direction=south;" vertex="1" parent="1">
          <mxGeometry x="299" y="430" width="230" height="100" as="geometry" />
        </mxCell>
        <mxCell id="NeOe5BnNapqzXYatWqwJ-14" value="카메라 버튼" style="rounded=1;whiteSpace=wrap;html=1;" vertex="1" parent="1">
          <mxGeometry x="240" y="520" width="120" height="60" as="geometry" />
        </mxCell>
        <mxCell id="NeOe5BnNapqzXYatWqwJ-15" value="메인화면" style="rounded=1;whiteSpace=wrap;html=1;" vertex="1" parent="1">
          <mxGeometry x="354" y="390" width="120" height="60" as="geometry" />
        </mxCell>
        <mxCell id="NeOe5BnNapqzXYatWqwJ-16" value="제품 목록" style="rounded=1;whiteSpace=wrap;html=1;" vertex="1" parent="1">
          <mxGeometry x="470" y="520" width="120" height="60" as="geometry" />
        </mxCell>
        <mxCell id="NeOe5BnNapqzXYatWqwJ-18" value="" style="line;strokeWidth=2;direction=south;html=1;" vertex="1" parent="1">
          <mxGeometry x="295" y="580" width="10" height="40" as="geometry" />
        </mxCell>
        <mxCell id="NeOe5BnNapqzXYatWqwJ-19" value="" style="line;strokeWidth=2;direction=south;html=1;" vertex="1" parent="1">
          <mxGeometry x="525" y="580" width="10" height="40" as="geometry" />
        </mxCell>
        <mxCell id="NeOe5BnNapqzXYatWqwJ-20" value="바코드 스캔" style="rounded=1;whiteSpace=wrap;html=1;" vertex="1" parent="1">
          <mxGeometry x="240" y="620" width="120" height="60" as="geometry" />
        </mxCell>
        <mxCell id="NeOe5BnNapqzXYatWqwJ-22" value="" style="edgeStyle=elbowEdgeStyle;elbow=horizontal;endArrow=classic;html=1;curved=0;rounded=0;endSize=8;startSize=8;exitX=1;exitY=0.5;exitDx=0;exitDy=0;entryX=0;entryY=0.5;entryDx=0;entryDy=0;" edge="1" parent="1" source="NeOe5BnNapqzXYatWqwJ-23" target="NeOe5BnNapqzXYatWqwJ-16">
          <mxGeometry width="50" height="50" relative="1" as="geometry">
            <mxPoint x="420" y="590" as="sourcePoint" />
            <mxPoint x="470" y="540" as="targetPoint" />
          </mxGeometry>
        </mxCell>
        <mxCell id="NeOe5BnNapqzXYatWqwJ-23" value="저장" style="ellipse;whiteSpace=wrap;html=1;aspect=fixed;" vertex="1" parent="1">
          <mxGeometry x="390.25" y="561" width="47.5" height="47.5" as="geometry" />
        </mxCell>
        <mxCell id="NeOe5BnNapqzXYatWqwJ-27" value="" style="endArrow=none;html=1;rounded=0;entryX=0;entryY=0.5;entryDx=0;entryDy=0;" edge="1" parent="1" target="NeOe5BnNapqzXYatWqwJ-23">
          <mxGeometry width="50" height="50" relative="1" as="geometry">
            <mxPoint x="360" y="650" as="sourcePoint" />
            <mxPoint x="408" y="600" as="targetPoint" />
            <Array as="points">
              <mxPoint x="380" y="650" />
              <mxPoint x="380" y="585" />
            </Array>
          </mxGeometry>
        </mxCell>
        <mxCell id="NeOe5BnNapqzXYatWqwJ-29" value="" style="endArrow=classic;html=1;rounded=0;" edge="1" parent="1">
          <mxGeometry width="50" height="50" relative="1" as="geometry">
            <mxPoint x="413" y="350" as="sourcePoint" />
            <mxPoint x="413" y="390" as="targetPoint" />
          </mxGeometry>
        </mxCell>
        <mxCell id="NeOe5BnNapqzXYatWqwJ-31" value="제품 수정" style="rounded=1;whiteSpace=wrap;html=1;" vertex="1" parent="1">
          <mxGeometry x="470" y="620" width="120" height="60" as="geometry" />
        </mxCell>
        <mxCell id="NeOe5BnNapqzXYatWqwJ-32" value="제품 저장 / 삭제" style="rounded=1;whiteSpace=wrap;html=1;" vertex="1" parent="1">
          <mxGeometry x="470" y="715" width="120" height="60" as="geometry" />
        </mxCell>
        <mxCell id="NeOe5BnNapqzXYatWqwJ-33" value="" style="line;strokeWidth=2;direction=south;html=1;" vertex="1" parent="1">
          <mxGeometry x="525" y="680" width="10" height="35" as="geometry" />
        </mxCell>
        <mxCell id="NeOe5BnNapqzXYatWqwJ-34" value="" style="line;strokeWidth=2;direction=west;html=1;" vertex="1" parent="1">
          <mxGeometry x="590" y="550" width="35" height="10" as="geometry" />
        </mxCell>
        <mxCell id="NeOe5BnNapqzXYatWqwJ-35" value="제품 상태 표시&lt;br&gt;( 임박 / 만료 )" style="rounded=1;whiteSpace=wrap;html=1;" vertex="1" parent="1">
          <mxGeometry x="625" y="525" width="120" height="60" as="geometry" />
        </mxCell>
        <mxCell id="NeOe5BnNapqzXYatWqwJ-46" value="" style="shape=partialRectangle;whiteSpace=wrap;html=1;bottom=0;right=0;fillColor=none;strokeWidth=2;" vertex="1" parent="1">
          <mxGeometry x="100" y="480" width="200" height="40" as="geometry" />
        </mxCell>
        <mxCell id="NeOe5BnNapqzXYatWqwJ-50" value="알람기능&lt;br&gt;( 활성화 / 비활성화)" style="rounded=1;whiteSpace=wrap;html=1;" vertex="1" parent="1">
          <mxGeometry x="40" y="520" width="120" height="60" as="geometry" />
        </mxCell>
        <mxCell id="NeOe5BnNapqzXYatWqwJ-52" value="" style="line;strokeWidth=2;direction=south;html=1;" vertex="1" parent="1">
          <mxGeometry x="95" y="580" width="10" height="40" as="geometry" />
        </mxCell>
        <mxCell id="NeOe5BnNapqzXYatWqwJ-53" value="알람시간 설정" style="rounded=1;whiteSpace=wrap;html=1;" vertex="1" parent="1">
          <mxGeometry x="40" y="620" width="120" height="60" as="geometry" />
        </mxCell>
      </root>
    </mxGraphModel>
  </diagram>
</mxfile>
